# Blender v2.78 (sub 0) OBJ File: 'eik.blend'
# www.blender.org
mtllib eik.mtl
o Icosphere_Icosphere.001
v -1.167077 2.478715 0.956109
v 0.572026 3.829129 0.882187
v -1.430261 3.665143 0.979540
v -0.868449 3.405962 -0.284305
v -0.076374 3.211751 -0.414594
v -0.561413 4.207745 0.374209
v -0.161841 2.115669 0.970197
v 0.592329 2.804320 1.233587
v 0.118722 2.413406 0.098394
v -0.686564 2.813870 1.822229
v -0.869695 2.401064 0.127976
v 0.838682 3.280834 0.758955
v 0.243792 3.495785 1.615184
v -0.656409 3.971516 1.761962
v -1.218219 2.985779 0.016338
v -0.037484 4.044079 0.151695
vn -0.3030 -0.8201 0.4854
vn -0.8243 -0.1934 0.5321
vn 0.7793 -0.1927 -0.5963
vn 0.8291 0.1161 0.5469
vn -0.9746 -0.2150 -0.0629
vn -0.2738 -0.3353 -0.9014
vn 0.7697 0.3341 -0.5439
vn 0.2387 0.9545 0.1788
vn -0.4659 0.8770 0.1174
vn -0.6735 0.6058 -0.4236
vn 0.0019 0.5625 -0.8268
vn -0.1121 0.6560 -0.7464
vn 0.3072 0.9513 0.0236
vn -0.2466 -0.4197 -0.8735
vn -0.8195 0.3676 -0.4397
vn 0.4621 0.7109 0.5302
vn 0.8190 0.2866 0.4971
vn 0.6867 0.4604 -0.5626
vn -0.8124 -0.5305 -0.2420
vn -0.7206 0.0548 0.6912
vn 0.1845 0.0463 0.9817
vn 0.3996 -0.2802 0.8728
vn 0.8127 -0.5644 -0.1447
vn -0.0183 -0.5437 -0.8391
vn -0.3391 -0.9402 -0.0336
vn 0.3225 -0.6251 0.7108
vn 0.0022 -0.9465 -0.3226
vn 0.6799 -0.7326 -0.0314
usemtl Material.004
s off
f 7//1 10//1 1//1
f 1//2 10//2 3//2
f 9//3 5//3 12//3
f 8//4 12//4 13//4
f 1//5 3//5 15//5
f 11//6 15//6 5//6
f 2//7 5//7 16//7
f 14//8 2//8 6//8
f 3//9 14//9 6//9
f 4//10 3//10 6//10
f 5//11 4//11 16//11
f 16//12 4//12 6//12
f 6//13 2//13 16//13
f 5//14 15//14 4//14
f 15//15 3//15 4//15
f 13//16 2//16 14//16
f 13//17 12//17 2//17
f 12//18 5//18 2//18
f 11//19 1//19 15//19
f 3//20 10//20 14//20
f 14//21 10//21 13//21
f 10//22 8//22 13//22
f 8//23 9//23 12//23
f 9//24 11//24 5//24
f 7//25 1//25 11//25
f 7//26 8//26 10//26
f 9//27 7//27 11//27
f 7//28 9//28 8//28
o Cylinder
v 0.058236 -0.547001 -0.346581
v -0.058236 3.066435 -0.346581
v 0.280315 -0.547001 -0.197559
v 0.255817 3.066435 -0.240972
v 0.343903 3.066435 0.043685
v 0.345818 -0.547001 0.024246
v 0.248450 -0.547001 0.236387
v 0.212286 3.066435 0.274066
v 0.043685 -0.547001 0.343903
v -0.008530 3.066435 0.342831
v -0.212286 -0.547001 0.274066
v -0.227385 3.066435 0.261674
v -0.351283 -0.547001 0.010497
v -0.345818 3.066435 0.024246
v -0.280315 3.066435 -0.197560
v -0.227385 -0.547001 -0.261675
vn 0.5572 -0.0062 -0.8304
vn 0.4649 -0.0046 0.8854
vn 0.9570 0.0025 -0.2902
vn -0.9101 -0.0060 -0.4143
vn -0.2849 -0.0092 -0.9585
vn 0.3187 0.0103 -0.9478
vn 0.8881 0.0010 0.4596
vn -0.3030 -0.0010 0.9530
vn 0.2973 0.0046 0.9548
vn -0.8895 -0.0013 0.4570
vn -0.9591 0.0025 -0.2832
vn -0.5572 0.0066 -0.8304
vn 0.0000 1.0000 0.0000
vn 0.0000 -1.0000 -0.0000
usemtl Material.001
s off
f 20//29 19//29 17//29
f 24//30 25//30 23//30
f 22//31 19//31 20//31 21//31
f 31//32 32//32 29//32
f 18//33 17//33 32//33
f 18//34 20//34 17//34
f 23//35 22//35 21//35 24//35
f 27//36 25//36 26//36 28//36
f 24//37 26//37 25//37
f 29//38 27//38 28//38 30//38
f 30//39 31//39 29//39
f 31//40 18//40 32//40
f 31//41 30//41 28//41 26//41 24//41 21//41 20//41 18//41
f 22//42 23//42 25//42 27//42 29//42 32//42 17//42 19//42
o Icosphere.001_Icosphere.002
v -1.133199 1.709197 -0.529168
v 0.539668 3.021351 -0.580509
v -0.480340 3.221296 0.084949
v -1.276171 2.975405 -0.595643
v -0.871719 2.628748 -1.657710
v 0.043700 2.667385 -1.603880
v -0.633994 3.279706 -1.211954
v -0.141165 1.515938 -0.248391
v 0.559534 2.030347 -0.241386
v 0.074025 1.676123 -1.266244
v -0.223097 1.367948 -0.800026
v -0.412979 2.183705 0.281788
v -0.845544 1.878227 0.052686
v -0.870728 1.655336 -1.264810
v -0.255020 2.143214 -1.667927
v 0.786947 2.500115 -0.672480
v 0.241789 2.682625 0.077766
v -1.349185 2.465284 -0.464155
v -0.745393 2.651090 0.218723
v -1.202056 2.215986 -1.387038
v -0.060328 3.238535 -1.258078
v -0.514587 3.395950 -0.757608
vn -0.2819 -0.8750 0.3935
vn -0.2606 -0.9221 0.2861
vn -0.8265 -0.2782 0.4894
vn 0.7056 -0.1055 -0.7007
vn 0.8168 0.1220 0.5638
vn -0.9602 -0.2673 -0.0809
vn -0.2904 -0.3645 -0.8847
vn 0.7369 0.4433 -0.5104
vn 0.3020 0.9358 0.1817
vn -0.4409 0.8752 0.1993
vn -0.6960 0.5610 -0.4482
vn 0.0281 0.5215 -0.8528
vn -0.0250 0.5710 -0.8206
vn -0.4961 0.8635 -0.0906
vn 0.0484 0.9645 -0.2595
vn 0.3338 0.9426 0.0065
vn 0.0547 0.0904 -0.9944
vn -0.2910 -0.3508 -0.8901
vn -0.8205 0.3721 -0.4339
vn -0.9790 0.0934 -0.1813
vn -0.6570 0.4477 0.6065
vn 0.4973 0.6591 0.5642
vn 0.8062 0.2916 0.5149
vn 0.7386 0.4405 -0.5103
vn 0.7089 -0.3277 -0.6246
vn -0.8088 -0.5324 -0.2496
vn -0.7572 0.2625 0.5981
vn -0.7419 -0.0476 0.6689
vn -0.3799 -0.1470 0.9133
vn 0.1341 0.1668 0.9768
vn 0.1308 0.2234 0.9659
vn 0.4362 -0.2151 0.8738
vn 0.8056 -0.5620 -0.1874
vn 0.0131 -0.6467 -0.7627
vn -0.3668 -0.9282 -0.0629
vn 0.0190 -0.6169 0.7868
vn 0.3518 -0.4900 0.7976
vn 0.0176 -0.8392 -0.5435
vn 0.5861 -0.8001 0.1276
vn 0.6701 -0.7396 -0.0618
usemtl Material.004
s off
f 40//43 45//43 33//43
f 40//44 33//44 43//44
f 33//45 45//45 50//45
f 42//46 47//46 48//46
f 41//47 48//47 49//47
f 33//48 50//48 52//48
f 46//49 52//49 47//49
f 34//50 38//50 53//50
f 35//51 34//51 54//51
f 36//52 35//52 54//52
f 37//53 36//53 39//53
f 38//54 37//54 53//54
f 53//55 37//55 39//55
f 39//56 36//56 54//56
f 54//57 53//57 39//57
f 54//58 34//58 53//58
f 47//59 37//59 38//59
f 47//60 52//60 37//60
f 52//61 36//61 37//61
f 52//62 50//62 36//62
f 51//63 35//63 36//63
f 49//64 34//64 35//64
f 49//65 48//65 34//65
f 48//66 38//66 34//66
f 48//67 47//67 38//67
f 46//68 33//68 52//68
f 50//69 51//69 36//69
f 50//70 45//70 51//70
f 45//71 44//71 51//71
f 51//72 49//72 35//72
f 51//73 44//73 49//73
f 44//74 41//74 49//74
f 41//75 42//75 48//75
f 42//76 46//76 47//76
f 43//77 33//77 46//77
f 45//78 40//78 44//78
f 40//79 41//79 44//79
f 42//80 43//80 46//80
f 40//81 43//81 41//81
f 43//82 42//82 41//82
o Icosphere.002_Icosphere.003
v -1.342140 3.555231 0.119416
v 0.531719 4.233764 -0.705458
v -1.173953 4.111120 -0.958798
v -0.598483 2.768188 -1.231597
v 0.217535 2.527647 -0.951364
v -0.333615 3.904864 -1.479882
v -0.367367 3.373744 0.664807
v 0.437195 4.035163 0.363079
v 0.177676 2.624898 0.038655
v -0.956442 4.652224 0.286283
v -0.843708 2.644414 -0.155152
v 0.762428 3.802041 -0.230402
v 0.083539 4.816969 -0.127304
v -0.417839 4.803650 -0.668120
v -1.090439 2.849391 -0.795731
v 0.234898 3.583161 -1.331083
vn -0.4827 0.0366 0.8750
vn -0.9442 0.3286 0.0221
vn 0.8999 -0.4291 0.0784
vn 0.8175 0.5222 0.2429
vn -0.9759 -0.0903 -0.1988
vn -0.2566 -0.9448 -0.2035
vn 0.9410 -0.1281 -0.3132
vn 0.3598 0.6437 -0.6754
vn -0.2947 0.6251 -0.7227
vn -0.5365 -0.0589 -0.8419
vn 0.2167 -0.3336 -0.9175
vn 0.1177 -0.2380 -0.9641
vn 0.4699 0.4910 -0.7336
vn -0.2490 -0.9632 -0.1016
vn -0.6695 -0.1386 -0.7298
vn 0.4503 0.7789 -0.4366
vn 0.8319 0.5470 0.0931
vn 0.8627 -0.0871 -0.4981
vn -0.8443 -0.5108 0.1618
vn -0.6101 0.7601 -0.2237
vn -0.1215 0.9887 0.0883
vn 0.2171 0.5873 0.7797
vn 0.7953 -0.2711 0.5423
vn -0.0373 -0.9947 0.0962
vn -0.4937 -0.4873 0.7203
vn 0.0900 0.3206 0.9429
vn -0.1468 -0.6952 0.7037
vn 0.5312 -0.2816 0.7991
usemtl Material.004
s off
f 61//83 64//83 55//83
f 55//84 64//84 57//84
f 63//85 59//85 66//85
f 62//86 66//86 67//86
f 55//87 57//87 69//87
f 65//88 69//88 59//88
f 56//89 59//89 70//89
f 68//90 56//90 60//90
f 57//91 68//91 60//91
f 58//92 57//92 60//92
f 59//93 58//93 70//93
f 70//94 58//94 60//94
f 60//95 56//95 70//95
f 59//96 69//96 58//96
f 69//97 57//97 58//97
f 67//98 56//98 68//98
f 67//99 66//99 56//99
f 66//100 59//100 56//100
f 65//101 55//101 69//101
f 57//102 64//102 68//102
f 68//103 64//103 67//103
f 64//104 62//104 67//104
f 62//105 63//105 66//105
f 63//106 65//106 59//106
f 61//107 55//107 65//107
f 61//108 62//108 64//108
f 63//109 61//109 65//109
f 61//110 63//110 62//110
o Icosphere.003_Icosphere.004
v -0.834174 2.081211 0.134576
v 0.991602 3.513304 0.078543
v -0.121640 3.731525 0.804827
v -0.990214 3.463158 0.062025
v -0.548793 3.084815 -1.097121
v 0.450301 3.126984 -1.038370
v -0.289339 3.795274 -0.610620
v 0.248537 1.870287 0.441018
v 1.013285 2.431716 0.448663
v 0.483397 2.045115 -0.669873
v 0.159117 1.708770 -0.161040
v -0.048121 2.599093 1.019658
v -0.520226 2.265692 0.769615
v -0.547712 2.022428 -0.668307
v 0.124275 2.554901 -1.108271
v 1.041601 2.944424 -0.021835
v 0.666496 3.143616 0.796987
v -1.069902 2.906409 0.205531
v -0.410921 3.109199 0.950828
v -0.909325 2.634324 -0.801708
v 0.336764 3.750340 -0.660960
v -0.159018 3.922144 -0.114745
vn -0.2819 -0.8750 0.3935
vn -0.2606 -0.9221 0.2861
vn -0.8265 -0.2782 0.4894
vn 0.7662 -0.0127 -0.6424
vn 0.8989 0.2683 0.3465
vn -0.9602 -0.2673 -0.0809
vn -0.2904 -0.3645 -0.8847
vn 0.7369 0.4433 -0.5104
vn 0.3020 0.9358 0.1817
vn -0.4409 0.8752 0.1993
vn -0.6960 0.5610 -0.4482
vn 0.0281 0.5215 -0.8528
vn -0.0250 0.5710 -0.8206
vn -0.4961 0.8635 -0.0906
vn 0.0484 0.9645 -0.2595
vn 0.3338 0.9426 0.0065
vn 0.0547 0.0904 -0.9944
vn -0.2910 -0.3508 -0.8901
vn -0.8205 0.3721 -0.4339
vn -0.9790 0.0934 -0.1813
vn -0.6570 0.4477 0.6065
vn 0.4973 0.6591 0.5642
vn 0.9097 0.0067 0.4151
vn 0.8655 0.1598 -0.4747
vn 0.7701 -0.3759 -0.5154
vn -0.8088 -0.5324 -0.2496
vn -0.7572 0.2625 0.5981
vn -0.7419 -0.0476 0.6689
vn -0.3799 -0.1470 0.9133
vn 0.1341 0.1668 0.9768
vn 0.1308 0.2234 0.9659
vn 0.4362 -0.2151 0.8738
vn 0.8918 -0.3317 -0.3078
vn 0.0131 -0.6467 -0.7627
vn -0.3668 -0.9282 -0.0629
vn 0.0190 -0.6169 0.7868
vn 0.3518 -0.4900 0.7976
vn 0.0176 -0.8392 -0.5435
vn 0.5861 -0.8001 0.1276
vn 0.6701 -0.7396 -0.0618
usemtl Material.004
s off
f 78//111 83//111 71//111
f 78//112 71//112 81//112
f 71//113 83//113 88//113
f 80//114 85//114 86//114
f 79//115 86//115 87//115
f 71//116 88//116 90//116
f 84//117 90//117 85//117
f 72//118 76//118 91//118
f 73//119 72//119 92//119
f 74//120 73//120 92//120
f 75//121 74//121 77//121
f 76//122 75//122 91//122
f 91//123 75//123 77//123
f 77//124 74//124 92//124
f 92//125 91//125 77//125
f 92//126 72//126 91//126
f 85//127 75//127 76//127
f 85//128 90//128 75//128
f 90//129 74//129 75//129
f 90//130 88//130 74//130
f 89//131 73//131 74//131
f 87//132 72//132 73//132
f 87//133 86//133 72//133
f 86//134 76//134 72//134
f 86//135 85//135 76//135
f 84//136 71//136 90//136
f 88//137 89//137 74//137
f 88//138 83//138 89//138
f 83//139 82//139 89//139
f 89//140 87//140 73//140
f 89//141 82//141 87//141
f 82//142 79//142 87//142
f 79//143 80//143 86//143
f 80//144 84//144 85//144
f 81//145 71//145 84//145
f 83//146 78//146 82//146
f 78//147 79//147 82//147
f 80//148 81//148 84//148
f 78//149 81//149 79//149
f 81//150 80//150 79//150
o Icosphere.004_Icosphere.000
v -0.914431 3.660555 0.030195
v 0.298822 3.517738 0.979288
v -0.543707 3.299391 1.199390
v -0.965120 3.899163 0.925732
v -0.474070 4.498095 0.542149
v 0.154036 4.276151 0.586297
v -0.382041 4.227345 1.068911
v -0.286129 3.237299 -0.060882
v 0.215203 3.153404 0.315227
v 0.078005 3.910632 -0.078036
v -0.233734 3.613143 -0.240186
v -0.566209 3.016665 0.483768
v -0.829059 3.224013 0.230645
v -0.581436 4.103107 -0.102445
v -0.055608 4.314412 0.199837
v 0.335178 3.503980 0.594800
v -0.053857 3.084884 0.820552
v -1.057315 3.758416 0.577380
v -0.771914 3.189193 0.806381
v -0.771598 4.327977 0.279108
v 0.026202 4.134534 1.039297
v -0.389157 3.906279 1.213088
vn -0.4151 -0.4454 -0.7933
vn -0.3661 -0.3586 -0.8587
vn -0.9413 -0.2744 -0.1967
vn 0.9157 0.3841 -0.1179
vn 0.7735 -0.5353 0.3393
vn -0.9075 0.3028 -0.2911
vn -0.0417 0.8515 -0.5226
vn 0.8677 0.3491 0.3540
vn 0.2738 -0.0913 0.9574
vn -0.4454 0.0933 0.8904
vn -0.5185 0.7203 0.4608
vn 0.2884 0.8877 0.3589
vn 0.2303 0.8813 0.4127
vn -0.4167 0.3801 0.8258
vn 0.1568 0.4017 0.9023
vn 0.3542 0.0658 0.9329
vn 0.3374 0.9370 -0.0903
vn -0.0402 0.8591 -0.5102
vn -0.6492 0.7089 0.2758
vn -0.8832 0.4667 0.0452
vn -0.7842 -0.3043 0.5407
vn 0.3420 -0.5564 0.7573
vn 0.7545 -0.6494 0.0946
vn 0.9700 0.2285 0.0835
vn 0.8695 0.1990 -0.4520
vn -0.7248 0.3715 -0.5802
vn -0.8849 -0.3006 0.3557
vn -0.9022 -0.4267 0.0637
vn -0.6283 -0.7778 0.0153
vn -0.1417 -0.9287 0.3427
vn -0.1396 -0.9075 0.3963
vn 0.1623 -0.9856 -0.0472
vn 0.9290 -0.0235 -0.3693
vn 0.2037 0.5999 -0.7737
vn -0.3692 -0.0007 -0.9293
vn -0.2282 -0.8559 -0.4641
vn 0.0925 -0.9385 -0.3326
vn 0.1387 0.3580 -0.9234
vn 0.4949 -0.4294 -0.7554
vn 0.6314 -0.2642 -0.7291
usemtl Material.004
s off
f 100//151 105//151 93//151
f 100//152 93//152 103//152
f 93//153 105//153 110//153
f 102//154 107//154 108//154
f 101//155 108//155 109//155
f 93//156 110//156 112//156
f 106//157 112//157 107//157
f 94//158 98//158 113//158
f 95//159 94//159 114//159
f 96//160 95//160 114//160
f 97//161 96//161 99//161
f 98//162 97//162 113//162
f 113//163 97//163 99//163
f 99//164 96//164 114//164
f 114//165 113//165 99//165
f 114//166 94//166 113//166
f 107//167 97//167 98//167
f 107//168 112//168 97//168
f 112//169 96//169 97//169
f 112//170 110//170 96//170
f 111//171 95//171 96//171
f 109//172 94//172 95//172
f 109//173 108//173 94//173
f 108//174 98//174 94//174
f 108//175 107//175 98//175
f 106//176 93//176 112//176
f 110//177 111//177 96//177
f 110//178 105//178 111//178
f 105//179 104//179 111//179
f 111//180 109//180 95//180
f 111//181 104//181 109//181
f 104//182 101//182 109//182
f 101//183 102//183 108//183
f 102//184 106//184 107//184
f 103//185 93//185 106//185
f 105//186 100//186 104//186
f 100//187 101//187 104//187
f 102//188 103//188 106//188
f 100//189 103//189 101//189
f 103//190 102//190 101//190
o Icosphere.005
v -1.080048 2.371057 0.845045
v 0.452382 1.921883 0.292725
v -0.273788 1.743379 -0.070998
v -0.763933 2.382185 -0.159098
v -0.425147 2.970605 0.115313
v 0.185091 2.708592 0.335556
v -0.074259 2.484972 -0.321246
v -0.530646 1.959028 1.282176
v 0.095288 1.754735 1.080106
v -0.164896 2.539813 1.125793
v -0.538235 2.335077 1.322361
v -0.589979 1.656720 0.751468
v -0.934490 1.924045 0.846634
v -0.798320 2.773264 0.889198
v -0.167643 2.850136 0.647273
v 0.333822 1.995826 0.691756
v 0.036357 1.597739 0.529697
v -0.995659 2.343880 0.220049
v -0.652240 1.754186 0.302584
v -0.820397 2.902925 0.364527
v 0.237786 2.486246 -0.093815
vn 0.7050 0.2272 -0.6719
vn 0.6616 0.0929 -0.7440
vn 0.9445 0.3080 0.1141
vn -0.8113 -0.4926 -0.3148
vn -0.7789 0.6201 -0.0935
vn 0.9338 -0.3290 0.1404
vn 0.0259 -0.9702 -0.2409
vn -0.9447 -0.3238 0.0517
vn -0.4872 0.3941 0.7793
vn 0.1820 0.2701 0.9455
vn 0.2681 -0.5297 0.8047
vn -0.4745 -0.8041 0.3582
vn -0.3841 -0.7551 0.5313
vn -0.5604 0.3123 0.7671
vn -0.3881 -0.9214 -0.0208
vn 0.0212 -0.9728 -0.2306
vn 0.5017 -0.5857 0.6366
vn 0.8084 -0.3714 0.4566
vn 0.5987 0.5408 0.5908
vn -0.4053 0.8182 0.4077
vn -0.6895 0.6474 -0.3248
vn -0.9274 -0.3031 -0.2194
vn -0.6881 -0.4342 -0.5815
vn 0.8157 -0.5526 -0.1709
vn 0.7215 0.4888 0.4904
vn 0.8170 0.5127 0.2638
vn 0.6250 0.7763 0.0819
vn 0.1728 0.9739 0.1469
vn 0.1580 0.9693 0.1885
vn -0.0063 0.9618 -0.2737
vn -0.7652 -0.2184 -0.6056
vn -0.1057 -0.8346 -0.5406
vn 0.6070 -0.3467 -0.7151
vn 0.4516 0.7526 -0.4792
vn 0.1179 0.8571 -0.5014
vn 0.0084 -0.7005 -0.7136
vn -0.2771 0.0966 -0.9560
vn -0.4256 -0.0886 -0.9006
usemtl Material.004
s off
f 122//191 127//191 115//191
f 122//192 115//192 125//192
f 115//193 127//193 132//193
f 124//194 129//194 130//194
f 123//195 130//195 131//195
f 115//196 132//196 134//196
f 128//197 134//197 129//197
f 116//198 120//198 135//198
f 117//199 116//199 121//199
f 118//200 117//200 121//200
f 119//201 118//201 121//201
f 120//202 119//202 135//202
f 135//203 119//203 121//203
f 121//204 116//204 135//204
f 129//205 119//205 120//205
f 129//206 134//206 119//206
f 134//207 118//207 119//207
f 134//208 132//208 118//208
f 133//209 117//209 118//209
f 131//210 116//210 117//210
f 131//211 130//211 116//211
f 130//212 120//212 116//212
f 130//213 129//213 120//213
f 128//214 115//214 134//214
f 132//215 133//215 118//215
f 132//216 127//216 133//216
f 127//217 126//217 133//217
f 133//218 131//218 117//218
f 133//219 126//219 131//219
f 126//220 123//220 131//220
f 123//221 124//221 130//221
f 124//222 128//222 129//222
f 125//223 115//223 128//223
f 127//224 122//224 126//224
f 122//225 123//225 126//225
f 124//226 125//226 128//226
f 122//227 125//227 123//227
f 125//228 124//228 123//228
